<?xml version="1.0" encoding="UTF-8"?>
<svg width="400px" height="178px" viewBox="0 0 400 178" version="1.1" xmlns="http://www.w3.org/2000/svg" xmlns:xlink="http://www.w3.org/1999/xlink">
    <title>Hello,Welcome!</title>
    <defs>
        <linearGradient x1="50%" y1="62.662491%" x2="50%" y2="100%" id="linearGradient-1">
            <stop stop-color="#FFFFFF" offset="0%"></stop>
            <stop stop-color="#C1E5FF" offset="100%"></stop>
        </linearGradient>
        <path d="M244.015625,302 L244.015625,276.960938 L266.671875,276.960938 L266.671875,302 L278.234375,302 L278.234375,244.734375 L266.671875,244.734375 L266.671875,267.273438 L244.015625,267.273438 L244.015625,244.734375 L232.453125,244.734375 L232.453125,302 L244.015625,302 Z M307.023438,302.9375 C311.580729,302.9375 315.376302,301.889323 318.410156,299.792969 C321.44401,297.696615 323.664062,294.643229 325.070312,290.632812 L325.070312,290.632812 L314.132812,288.796875 C313.533854,290.880208 312.648438,292.390625 311.476562,293.328125 C310.304688,294.265625 308.859375,294.734375 307.140625,294.734375 C304.614583,294.734375 302.505208,293.829427 300.8125,292.019531 C299.119792,290.209635 298.234375,287.677083 298.15625,284.421875 L298.15625,284.421875 L325.65625,284.421875 C325.8125,276.010417 324.106771,269.766927 320.539062,265.691406 C316.971354,261.615885 312.101562,259.578125 305.929688,259.578125 C300.434896,259.578125 295.890625,261.52474 292.296875,265.417969 C288.703125,269.311198 286.90625,274.695312 286.90625,281.570312 C286.90625,287.325521 288.273438,292.091146 291.007812,295.867188 C294.471354,300.580729 299.809896,302.9375 307.023438,302.9375 Z M314.757812,277.703125 L298.351562,277.703125 C298.325521,274.708333 299.09375,272.338542 300.65625,270.59375 C302.21875,268.848958 304.197917,267.976562 306.59375,267.976562 C308.833333,267.976562 310.734375,268.803385 312.296875,270.457031 C313.859375,272.110677 314.679688,274.526042 314.757812,277.703125 L314.757812,277.703125 Z M345.578125,302 L345.578125,244.734375 L334.601562,244.734375 L334.601562,302 L345.578125,302 Z M367.804688,302 L367.804688,244.734375 L356.828125,244.734375 L356.828125,302 L367.804688,302 Z M397.960938,302.9375 C404.106771,302.9375 409.204427,300.873698 413.253906,296.746094 C417.303385,292.61849 419.328125,287.416667 419.328125,281.140625 C419.328125,274.916667 417.322917,269.766927 413.3125,265.691406 C409.302083,261.615885 404.158854,259.578125 397.882812,259.578125 C393.820312,259.578125 390.141927,260.476562 386.847656,262.273438 C383.553385,264.070312 381.007812,266.674479 379.210938,270.085938 C377.414062,273.497396 376.515625,277.026042 376.515625,280.671875 C376.515625,285.4375 377.414062,289.480469 379.210938,292.800781 C381.007812,296.121094 383.63151,298.640625 387.082031,300.359375 C390.532552,302.078125 394.158854,302.9375 397.960938,302.9375 Z M397.921875,293.992188 C395.057292,293.992188 392.648438,292.898438 390.695312,290.710938 C388.742188,288.523438 387.765625,285.372396 387.765625,281.257812 C387.765625,277.143229 388.742188,273.992188 390.695312,271.804688 C392.648438,269.617188 395.057292,268.523438 397.921875,268.523438 C400.786458,268.523438 403.188802,269.617188 405.128906,271.804688 C407.06901,273.992188 408.039062,277.117188 408.039062,281.179688 C408.039062,285.346354 407.06901,288.523438 405.128906,290.710938 C403.188802,292.898438 400.786458,293.992188 397.921875,293.992188 Z M428.898438,314.773438 C431.242188,313.940104 433.175781,312.794271 434.699219,311.335938 C436.222656,309.877604 437.257812,308.230469 437.804688,306.394531 C438.351562,304.558594 438.625,302.052083 438.625,298.875 L438.625,298.875 L438.625,291.023438 L427.648438,291.023438 L427.648438,302 L432.960938,302 C432.908854,304.213542 432.414062,305.958333 431.476562,307.234375 C430.539062,308.510417 428.963542,309.513021 426.75,310.242188 L426.75,310.242188 L428.898438,314.773438 Z M173.78125,391 L185.148438,348.1875 L196.554688,391 L208.820312,391 L222.726562,333.734375 L211.085938,333.734375 L202.296875,373.734375 L192.257812,333.734375 L178.507812,333.734375 L168.039062,373.070312 L159.40625,333.734375 L147.570312,333.734375 L161.242188,391 L173.78125,391 Z M244.015625,391.9375 C248.572917,391.9375 252.36849,390.889323 255.402344,388.792969 C258.436198,386.696615 260.65625,383.643229 262.0625,379.632812 L262.0625,379.632812 L251.125,377.796875 C250.526042,379.880208 249.640625,381.390625 248.46875,382.328125 C247.296875,383.265625 245.851562,383.734375 244.132812,383.734375 C241.606771,383.734375 239.497396,382.829427 237.804688,381.019531 C236.111979,379.209635 235.226562,376.677083 235.148438,373.421875 L235.148438,373.421875 L262.648438,373.421875 C262.804688,365.010417 261.098958,358.766927 257.53125,354.691406 C253.963542,350.615885 249.09375,348.578125 242.921875,348.578125 C237.427083,348.578125 232.882812,350.52474 229.289062,354.417969 C225.695312,358.311198 223.898438,363.695312 223.898438,370.570312 C223.898438,376.325521 225.265625,381.091146 228,384.867188 C231.463542,389.580729 236.802083,391.9375 244.015625,391.9375 Z M251.75,366.703125 L235.34375,366.703125 C235.317708,363.708333 236.085938,361.338542 237.648438,359.59375 C239.210938,357.848958 241.190104,356.976562 243.585938,356.976562 C245.825521,356.976562 247.726562,357.803385 249.289062,359.457031 C250.851562,361.110677 251.671875,363.526042 251.75,366.703125 L251.75,366.703125 Z M282.570312,391 L282.570312,333.734375 L271.59375,333.734375 L271.59375,391 L282.570312,391 Z M311.320312,391.9375 C316.658854,391.9375 320.916667,390.674479 324.09375,388.148438 C327.270833,385.622396 329.419271,381.885417 330.539062,376.9375 L330.539062,376.9375 L319.757812,375.101562 C319.210938,377.992188 318.273438,380.029948 316.945312,381.214844 C315.617188,382.39974 313.911458,382.992188 311.828125,382.992188 C309.041667,382.992188 306.821615,381.976562 305.167969,379.945312 C303.514323,377.914062 302.6875,374.4375 302.6875,369.515625 C302.6875,365.088542 303.501302,361.93099 305.128906,360.042969 C306.75651,358.154948 308.9375,357.210938 311.671875,357.210938 C313.729167,357.210938 315.402344,357.757812 316.691406,358.851562 C317.980469,359.945312 318.807292,361.572917 319.171875,363.734375 L319.171875,363.734375 L329.992188,361.78125 C328.690104,357.328125 326.548177,354.014323 323.566406,351.839844 C320.584635,349.665365 316.567708,348.578125 311.515625,348.578125 C305.34375,348.578125 300.447917,350.485677 296.828125,354.300781 C293.208333,358.115885 291.398438,363.447917 291.398438,370.296875 C291.398438,377.067708 293.201823,382.367188 296.808594,386.195312 C300.415365,390.023438 305.252604,391.9375 311.320312,391.9375 Z M357.21875,391.9375 C363.364583,391.9375 368.46224,389.873698 372.511719,385.746094 C376.561198,381.61849 378.585938,376.416667 378.585938,370.140625 C378.585938,363.916667 376.580729,358.766927 372.570312,354.691406 C368.559896,350.615885 363.416667,348.578125 357.140625,348.578125 C353.078125,348.578125 349.39974,349.476562 346.105469,351.273438 C342.811198,353.070312 340.265625,355.674479 338.46875,359.085938 C336.671875,362.497396 335.773438,366.026042 335.773438,369.671875 C335.773438,374.4375 336.671875,378.480469 338.46875,381.800781 C340.265625,385.121094 342.889323,387.640625 346.339844,389.359375 C349.790365,391.078125 353.416667,391.9375 357.21875,391.9375 Z M357.179688,382.992188 C354.315104,382.992188 351.90625,381.898438 349.953125,379.710938 C348,377.523438 347.023438,374.372396 347.023438,370.257812 C347.023438,366.143229 348,362.992188 349.953125,360.804688 C351.90625,358.617188 354.315104,357.523438 357.179688,357.523438 C360.044271,357.523438 362.446615,358.617188 364.386719,360.804688 C366.326823,362.992188 367.296875,366.117188 367.296875,370.179688 C367.296875,374.346354 366.326823,377.523438 364.386719,379.710938 C362.446615,381.898438 360.044271,382.992188 357.179688,382.992188 Z M397.335938,391 L397.335938,370.84375 C397.335938,366.859375 397.628906,364.007812 398.214844,362.289062 C398.800781,360.570312 399.770833,359.255208 401.125,358.34375 C402.479167,357.432292 404.002604,356.976562 405.695312,356.976562 C407.101562,356.976562 408.214844,357.263021 409.035156,357.835938 C409.855469,358.408854 410.460938,359.28125 410.851562,360.453125 C411.242188,361.625 411.4375,364.229167 411.4375,368.265625 L411.4375,368.265625 L411.4375,391 L422.414062,391 L422.414062,371.078125 C422.414062,367.171875 422.713542,364.313802 423.3125,362.503906 C423.911458,360.69401 424.888021,359.320312 426.242188,358.382812 C427.596354,357.445312 429.041667,356.976562 430.578125,356.976562 C432.6875,356.976562 434.25,357.757812 435.265625,359.320312 C436.020833,360.518229 436.398438,363.174479 436.398438,367.289062 L436.398438,367.289062 L436.398438,391 L447.375,391 L447.375,364.476562 C447.375,360.518229 446.997396,357.653646 446.242188,355.882812 C445.200521,353.486979 443.625,351.670573 441.515625,350.433594 C439.40625,349.196615 436.828125,348.578125 433.78125,348.578125 C431.385417,348.578125 429.132812,349.125 427.023438,350.21875 C424.914062,351.3125 422.947917,352.966146 421.125,355.179688 C419.875,352.966146 418.273438,351.3125 416.320312,350.21875 C414.367188,349.125 412.0625,348.578125 409.40625,348.578125 C404.40625,348.578125 400.096354,350.778646 396.476562,355.179688 L396.476562,355.179688 L396.476562,349.515625 L386.359375,349.515625 L386.359375,391 L397.335938,391 Z M475.226562,391.9375 C479.783854,391.9375 483.579427,390.889323 486.613281,388.792969 C489.647135,386.696615 491.867188,383.643229 493.273438,379.632812 L493.273438,379.632812 L482.335938,377.796875 C481.736979,379.880208 480.851562,381.390625 479.679688,382.328125 C478.507812,383.265625 477.0625,383.734375 475.34375,383.734375 C472.817708,383.734375 470.708333,382.829427 469.015625,381.019531 C467.322917,379.209635 466.4375,376.677083 466.359375,373.421875 L466.359375,373.421875 L493.859375,373.421875 C494.015625,365.010417 492.309896,358.766927 488.742188,354.691406 C485.174479,350.615885 480.304688,348.578125 474.132812,348.578125 C468.638021,348.578125 464.09375,350.52474 460.5,354.417969 C456.90625,358.311198 455.109375,363.695312 455.109375,370.570312 C455.109375,376.325521 456.476562,381.091146 459.210938,384.867188 C462.674479,389.580729 468.013021,391.9375 475.226562,391.9375 Z M482.960938,366.703125 L466.554688,366.703125 C466.528646,363.708333 467.296875,361.338542 468.859375,359.59375 C470.421875,357.848958 472.401042,356.976562 474.796875,356.976562 C477.036458,356.976562 478.9375,357.803385 480.5,359.457031 C482.0625,361.110677 482.882812,363.526042 482.960938,366.703125 L482.960938,366.703125 Z M513.3125,376.234375 L516.125,347.171875 L516.125,333.734375 L504.25,333.734375 L504.25,347.171875 L507.101562,376.234375 L513.3125,376.234375 Z M515.695312,391 L515.695312,380.023438 L504.71875,380.023438 L504.71875,391 L515.695312,391 Z" id="path-2"></path>
        <filter x="-7.1%" y="-14.9%" width="114.1%" height="135.3%" filterUnits="objectBoundingBox" id="filter-3">
            <feOffset dx="0" dy="4" in="SourceAlpha" result="shadowOffsetOuter1"></feOffset>
            <feGaussianBlur stdDeviation="8" in="shadowOffsetOuter1" result="shadowBlurOuter1"></feGaussianBlur>
            <feColorMatrix values="0 0 0 0 0   0 0 0 0 0.372690374   0 0 0 0 0.990234375  0 0 0 0.2 0" type="matrix" in="shadowBlurOuter1"></feColorMatrix>
        </filter>
    </defs>
    <g id="系统管理" stroke="none" stroke-width="1" fill="none" fill-rule="evenodd">
        <g id="登录" transform="translate(-492.000000, -412.000000)" fill-rule="nonzero">
            <g id="Hello,Welcome!" transform="translate(360.000000, 179.000000)">
                <use fill="black" fill-opacity="1" filter="url(#filter-3)" xlink:href="#path-2"></use>
                <use fill="#FFFFFF" xlink:href="#path-2"></use>
                <use fill="url(#linearGradient-1)" xlink:href="#path-2"></use>
            </g>
        </g>
    </g>
</svg>