<?xml version="1.0" encoding="UTF-8"?>
<svg width="38px" height="48px" viewBox="0 0 38 48" version="1.1" xmlns="http://www.w3.org/2000/svg" xmlns:xlink="http://www.w3.org/1999/xlink">
    <title>doc</title>
    <g id="知识库" stroke="none" stroke-width="1" fill="none" fill-rule="evenodd">
        <g id="画板" transform="translate(-198.000000, -19.000000)" fill-rule="nonzero">
            <g id="编组-54" transform="translate(198.000000, 19.000000)">
                <path d="M0,3.82560002 L0,44.1744 C0,46.2744 1.65411763,48 3.66588233,48 L34.3341176,48 C36.3458823,48 38,46.2744 38,44.1744 L38,15.2256 L24.0632353,0 L3.66364707,0 C1.65411763,0 0,1.72560004 0,3.82560002 Z" id="路径备份" fill="#6395EE"></path>
                <path d="M24.0632353,2.66453526e-14 L24.0632353,11.0955694 C24.0632353,12.2235694 24.4899786,15.2256 28.2795786,15.2256 L38,15.2256 L24.0632353,2.66453526e-14 Z" id="路径备份-2" fill="#D0DFF9"></path>
                <path d="M10.4134457,35.1842105 C11.0203536,35.1842105 11.5051398,35.1268503 11.8678043,35.0121299 C12.3525905,34.8567023 12.7374589,34.6402138 13.0224095,34.3626645 C13.3998766,33.9962993 13.6903783,33.5170641 13.8939145,32.9249589 C14.0604441,32.4401727 14.1437089,31.8628701 14.1437089,31.193051 C14.1437089,30.4307155 14.0548931,29.7895765 13.8772615,29.269634 C13.6996299,28.7496916 13.4405839,28.3102385 13.1001234,27.9512747 C12.7596628,27.5923109 12.3507401,27.3425164 11.8733553,27.2018914 C11.5180921,27.098273 11.0018503,27.0464638 10.3246299,27.0464638 L10.3246299,27.0464638 L7.32154605,27.0464638 L7.32154605,35.1842105 L10.4134457,35.1842105 Z M10.1914062,33.8131168 L8.96463816,33.8131168 L8.96463816,28.4231086 L9.70291941,28.4231086 C10.3727385,28.4231086 10.8223684,28.4490132 11.0518092,28.5008224 C11.3589638,28.5674342 11.6124589,28.6951069 11.8122944,28.8838405 C12.0121299,29.072574 12.1675576,29.3353207 12.2785773,29.6720806 C12.389597,30.0088405 12.4451069,30.4917763 12.4451069,31.1208882 C12.4451069,31.75 12.389597,32.2468133 12.2785773,32.6113281 C12.1675576,32.9758429 12.0241571,33.2376645 11.8483758,33.3967928 C11.6725946,33.5559211 11.4514803,33.6687911 11.1850329,33.735403 C10.9814967,33.7872122 10.6502878,33.8131168 10.1914062,33.8131168 L10.1914062,33.8131168 Z M19.161801,35.3229852 C20.3571135,35.3229852 21.3118832,34.9519942 22.0261102,34.2100123 C22.7403372,33.4680304 23.0974507,32.4401727 23.0974507,31.1264391 C23.0974507,29.8016036 22.7375617,28.7672697 22.0177837,28.0234375 C21.2980058,27.2796053 20.3386102,26.9076891 19.139597,26.9076891 C18.4771793,26.9076891 17.8924753,27.0150082 17.3854852,27.2296464 C17.0043174,27.3887747 16.6536801,27.6330181 16.3335732,27.9623766 C16.0134663,28.2917352 15.7608964,28.6636513 15.5758635,29.078125 C15.3279194,29.640625 15.2039474,30.3363487 15.2039474,31.1652961 C15.2039474,32.4605263 15.5610609,33.4772821 16.2752878,34.2155633 C16.9895148,34.9538446 17.9516859,35.3229852 19.161801,35.3229852 Z M19.15625,33.9185855 C18.5012336,33.9185855 17.9609375,33.6808183 17.5353618,33.2052837 C17.1097862,32.7297492 16.8969984,32.03125 16.8969984,31.1097862 C16.8969984,30.1735197 17.1042352,29.4731702 17.5187089,29.0087377 C17.9331826,28.5443051 18.4790296,28.3120888 19.15625,28.3120888 C19.8334704,28.3120888 20.3765419,28.5415296 20.7854646,29.0004112 C21.1943873,29.4592928 21.3988487,30.1550164 21.3988487,31.0875822 C21.3988487,32.03125 21.1888363,32.7390008 20.7688117,33.2108347 C20.348787,33.6826686 19.8112664,33.9185855 19.15625,33.9185855 Z M27.7991365,35.3229852 C28.6724918,35.3229852 29.3931949,35.1074219 29.9612459,34.6762952 C30.5292969,34.2451686 30.9354441,33.5855263 31.1796875,32.6973684 L31.1796875,32.6973684 L29.5865543,32.1922286 C29.4496299,32.7880345 29.2238898,33.2247122 28.9093339,33.5022615 C28.594778,33.7798109 28.2191612,33.9185855 27.7824836,33.9185855 C27.1903783,33.9185855 26.7092928,33.7002467 26.339227,33.2635691 C25.9691612,32.8268914 25.7841283,32.0941612 25.7841283,31.0653783 C25.7841283,30.0958059 25.9719367,29.3945313 26.3475535,28.9615543 C26.7231702,28.5285773 27.2125822,28.3120888 27.8157895,28.3120888 C28.2524671,28.3120888 28.6234581,28.4342105 28.9287623,28.6784539 C29.2340666,28.9226974 29.4348273,29.2557566 29.5310444,29.6776316 L29.5310444,29.6776316 L31.1574836,29.2890625 C30.9724507,28.6377467 30.6949013,28.1381579 30.3248355,27.7902961 C29.703125,27.2018914 28.8945312,26.9076891 27.8990543,26.9076891 C26.7592516,26.9076891 25.8396382,27.2823808 25.1402138,28.031764 C24.4407895,28.7811472 24.0910773,29.8330592 24.0910773,31.1875 C24.0910773,32.4679276 24.4389391,33.4772821 25.1346628,34.2155633 C25.8303865,34.9538446 26.7185444,35.3229852 27.7991365,35.3229852 Z" id="DOC" fill="#EFF4FD"></path>
            </g>
        </g>
    </g>
</svg>