<?xml version="1.0" encoding="UTF-8"?>
<svg width="39px" height="48px" viewBox="0 0 39 48" version="1.1" xmlns="http://www.w3.org/2000/svg" xmlns:xlink="http://www.w3.org/1999/xlink">
    <title>ppt</title>
    <g id="知识库" stroke="none" stroke-width="1" fill="none" fill-rule="evenodd">
        <g id="画板" transform="translate(-404.000000, -19.000000)" fill-rule="nonzero">
            <g id="ppt" transform="translate(404.000000, 19.000000)">
                <path d="M0,3.82560002 L0,44.1744 C0,46.2744 1.69764704,48 3.76235292,48 L35.237647,48 C37.3023529,48 39,46.2744 39,44.1744 L39,15.2256 L25.0632353,0 L3.76005884,0 C1.69764704,0 0,1.72560004 0,3.82560002 Z" id="路径备份" fill="#E36F66"></path>
                <path d="M25.0632353,0 L25.0632353,11.0955694 C25.0632353,12.2235694 25.4899786,15.2256 29.2795786,15.2256 L39,15.2256 L25.0632353,0 Z" id="路径备份-2" fill="#F6D4D1"></path>
                <path d="M10.4701891,35.1842105 L10.4701891,32.1145148 L11.5415296,32.1145148 C12.2853618,32.1145148 12.8534128,32.0756579 13.2456826,31.9979441 C13.5343339,31.9350329 13.8183594,31.806435 14.097759,31.6121505 C14.3771587,31.417866 14.6075247,31.1504934 14.7888569,30.8100329 C14.9701891,30.4695724 15.0608553,30.0495477 15.0608553,29.5499589 C15.0608553,28.9023438 14.9035773,28.3740748 14.5890214,27.9651521 C14.2744655,27.5562294 13.8840461,27.2907072 13.4177632,27.1685855 C13.1143092,27.0871711 12.4629934,27.0464638 11.4638158,27.0464638 L8.82709704,27.0464638 L8.82709704,35.1842105 L10.4701891,35.1842105 Z M11.369449,30.7323191 L10.4701891,30.7323191 L10.4701891,28.4231086 L11.2639803,28.4231086 C11.8560855,28.4231086 12.2502056,28.4416118 12.4463405,28.4786184 C12.7127878,28.526727 12.932977,28.6469984 13.1069079,28.8394326 C13.2808388,29.0318668 13.3678043,29.2761102 13.3678043,29.5721628 C13.3678043,29.8127056 13.3058183,30.0236431 13.1818462,30.2049753 C13.0578742,30.3863076 12.8867188,30.5195313 12.6683799,30.6046464 C12.4500411,30.6897615 12.0170641,30.7323191 11.369449,30.7323191 L11.369449,30.7323191 Z M18.0528372,35.1842105 L18.0528372,32.1145148 L19.1241776,32.1145148 C19.8680099,32.1145148 20.4360609,32.0756579 20.8283306,31.9979441 C21.1169819,31.9350329 21.4010074,31.806435 21.6804071,31.6121505 C21.9598067,31.417866 22.1901727,31.1504934 22.3715049,30.8100329 C22.5528372,30.4695724 22.6435033,30.0495477 22.6435033,29.5499589 C22.6435033,28.9023438 22.4862253,28.3740748 22.1716694,27.9651521 C21.8571135,27.5562294 21.4666941,27.2907072 21.0004112,27.1685855 C20.6969572,27.0871711 20.0456414,27.0464638 19.0464638,27.0464638 L16.4097451,27.0464638 L16.4097451,35.1842105 L18.0528372,35.1842105 Z M18.0528372,30.7323191 L18.0528372,28.4231086 L18.8466283,28.4231086 C19.4387336,28.4231086 19.8328536,28.4416118 20.0289885,28.4786184 C20.2954359,28.526727 20.515625,28.6469984 20.6895559,28.8394326 C20.8634868,29.0318668 20.9504523,29.2761102 20.9504523,29.5721628 C20.9504523,29.8127056 20.8884663,30.0236431 20.7644942,30.2049753 C20.6405222,30.3863076 20.4693668,30.5195313 20.251028,30.6046464 C20.0326891,30.6897615 19.5997122,30.7323191 18.952097,30.7323191 L18.0528372,30.7323191 Z M27.4673109,35.1842105 L27.4673109,28.4231086 L29.8764391,28.4231086 L29.8764391,27.0464638 L23.4095395,27.0464638 L23.4095395,28.4231086 L25.8242188,28.4231086 L25.8242188,35.1842105 L27.4673109,35.1842105 Z" id="PPT" fill="#F9E2E2"></path>
            </g>
        </g>
    </g>
</svg>