<?xml version="1.0" encoding="UTF-8"?>
<svg width="39px" height="48px" viewBox="0 0 39 48" version="1.1" xmlns="http://www.w3.org/2000/svg" xmlns:xlink="http://www.w3.org/1999/xlink">
    <title>xls</title>
    <g id="知识库" stroke="none" stroke-width="1" fill="none" fill-rule="evenodd">
        <g id="画板" transform="translate(-96.000000, -19.000000)" fill-rule="nonzero">
            <g id="编组-54" transform="translate(96.000000, 19.000000)">
                <path d="M0,3.82560002 L0,44.1744 C0,46.2744 1.69764704,48 3.76235292,48 L35.237647,48 C37.3023529,48 39,46.2744 39,44.1744 L39,15.2256 L25.0632353,0 L3.76005884,0 C1.69764704,0 0,1.72560004 0,3.82560002 Z" id="路径备份" fill="#59C3AA"></path>
                <path d="M25.0632353,0 L25.0632353,11.0955694 C25.0632353,12.2235694 25.4899786,15.2256 29.2795786,15.2256 L39,15.2256 L25.0632353,0 Z" id="路径备份-2" fill="#CDEDE5"></path>
                <path d="M9.68955592,34.8026316 L11.7002467,31.6755757 L13.7047697,34.8026316 L15.9066612,34.8026316 L12.8166118,30.1521382 L15.6291118,25.7606908 L13.5135691,25.7606908 L11.7372533,28.6657072 L9.92393092,25.7606908 L7.78988487,25.7606908 L10.5900493,30.0842928 L7.5,34.8026316 L9.68955592,34.8026316 Z M23.2586349,34.8026316 L23.2586349,33.2791941 L18.7191612,33.2791941 L18.7191612,25.8347039 L16.8935033,25.8347039 L16.8935033,34.8026316 L23.2586349,34.8026316 Z M27.8289474,34.9629934 C28.6143092,34.9629934 29.270148,34.8530016 29.7964638,34.6330181 C30.3227796,34.4130345 30.729852,34.0768914 31.0176809,33.6245888 C31.3055099,33.1722862 31.4494243,32.6870888 31.4494243,32.1689967 C31.4494243,31.5974507 31.329153,31.1173931 31.0886102,30.728824 C30.8480674,30.3402549 30.5150082,30.0339227 30.0894326,29.8098273 C29.6638569,29.5857319 29.0069901,29.3688322 28.1188322,29.1591283 C27.2306743,28.9494243 26.6714638,28.7479441 26.4412007,28.5546875 C26.2602796,28.4025493 26.1698191,28.2195724 26.1698191,28.0057566 C26.1698191,27.7713816 26.2664474,27.5842928 26.4597039,27.4444901 C26.7598684,27.2265625 27.1751645,27.1175987 27.7055921,27.1175987 C28.2195724,27.1175987 28.6050576,27.2193668 28.8620477,27.422903 C29.1190378,27.6264391 29.2865954,27.9605263 29.3647204,28.4251645 L29.3647204,28.4251645 L31.1903783,28.3449836 C31.1615954,27.5143914 30.860403,26.8503289 30.286801,26.3527961 C29.713199,25.8552632 28.8589638,25.6064967 27.7240954,25.6064967 C27.0291941,25.6064967 26.4360609,25.7113487 25.9446957,25.9210526 C25.4533306,26.1307566 25.077097,26.4360609 24.8159951,26.8369655 C24.5548931,27.2378701 24.4243421,27.6685855 24.4243421,28.1291118 C24.4243421,28.8445724 24.7018914,29.4510691 25.2569901,29.948602 C25.651727,30.3022204 26.3384046,30.6003289 27.317023,30.8429276 C28.0777138,31.0320724 28.5649671,31.1636513 28.7787829,31.2376645 C29.0912829,31.3486842 29.3102385,31.4792352 29.4356497,31.6293174 C29.5610609,31.7793997 29.6237664,31.9613487 29.6237664,32.1751645 C29.6237664,32.5082237 29.4747122,32.7991365 29.1766036,33.047903 C28.8784951,33.2966694 28.4354441,33.4210526 27.8474507,33.4210526 C27.292352,33.4210526 26.8513569,33.28125 26.5244655,33.0016447 C26.197574,32.7220395 25.9806743,32.2841283 25.8737664,31.6879112 L25.8737664,31.6879112 L24.0974507,31.8606086 C24.2166941,32.8721217 24.582648,33.6420641 25.1953125,34.1704359 C25.807977,34.6988076 26.6858553,34.9629934 27.8289474,34.9629934 Z" id="XLS" fill="#EEF9F6"></path>
            </g>
        </g>
    </g>
</svg>