<?xml version="1.0" encoding="UTF-8"?>
<svg width="39px" height="48px" viewBox="0 0 39 48" version="1.1" xmlns="http://www.w3.org/2000/svg" xmlns:xlink="http://www.w3.org/1999/xlink">
    <title>pdf</title>
    <g id="知识库" stroke="none" stroke-width="1" fill="none" fill-rule="evenodd">
        <g id="画板" transform="translate(-248.000000, -19.000000)" fill-rule="nonzero">
            <g id="编组-54" transform="translate(248.000000, 19.000000)">
                <path d="M0,3.82560002 L0,44.1744 C0,46.2744 1.69764704,48 3.76235292,48 L35.237647,48 C37.3023529,48 39,46.2744 39,44.1744 L39,15.2256 L25.0632353,0 L3.76005884,0 C1.69764704,0 0,1.72560004 0,3.82560002 Z" id="路径备份" fill="#E36F66"></path>
                <path d="M25.0632353,0 L25.0632353,11.0955694 C25.0632353,12.2235694 25.4899786,15.2256 29.2795786,15.2256 L39,15.2256 L25.0632353,0 Z" id="路径备份-2" fill="#F6D4D1"></path>
                <path d="M10.4701891,35.1842105 L10.4701891,32.1145148 L11.5415296,32.1145148 C12.2853618,32.1145148 12.8534128,32.0756579 13.2456826,31.9979441 C13.5343339,31.9350329 13.8183594,31.806435 14.097759,31.6121505 C14.3771587,31.417866 14.6075247,31.1504934 14.7888569,30.8100329 C14.9701891,30.4695724 15.0608553,30.0495477 15.0608553,29.5499589 C15.0608553,28.9023438 14.9035773,28.3740748 14.5890214,27.9651521 C14.2744655,27.5562294 13.8840461,27.2907072 13.4177632,27.1685855 C13.1143092,27.0871711 12.4629934,27.0464638 11.4638158,27.0464638 L11.4638158,27.0464638 L8.82709704,27.0464638 L8.82709704,35.1842105 L10.4701891,35.1842105 Z M11.369449,30.7323191 L10.4701891,30.7323191 L10.4701891,28.4231086 L11.2639803,28.4231086 C11.8560855,28.4231086 12.2502056,28.4416118 12.4463405,28.4786184 C12.7127878,28.526727 12.932977,28.6469984 13.1069079,28.8394326 C13.2808388,29.0318668 13.3678043,29.2761102 13.3678043,29.5721628 C13.3678043,29.8127056 13.3058183,30.0236431 13.1818462,30.2049753 C13.0578742,30.3863076 12.8867188,30.5195313 12.6683799,30.6046464 C12.4500411,30.6897615 12.0170641,30.7323191 11.369449,30.7323191 L11.369449,30.7323191 Z M19.4960938,35.1842105 C20.1030016,35.1842105 20.5877878,35.1268503 20.9504523,35.0121299 C21.4352385,34.8567023 21.8201069,34.6402138 22.1050576,34.3626645 C22.4825247,33.9962993 22.7730263,33.5170641 22.9765625,32.9249589 C23.1430921,32.4401727 23.2263569,31.8628701 23.2263569,31.193051 C23.2263569,30.4307155 23.1375411,29.7895765 22.9599095,29.269634 C22.782278,28.7496916 22.5232319,28.3102385 22.1827714,27.9512747 C21.8423109,27.5923109 21.4333882,27.3425164 20.9560033,27.2018914 C20.6007401,27.098273 20.0844984,27.0464638 19.407278,27.0464638 L19.407278,27.0464638 L16.4041941,27.0464638 L16.4041941,35.1842105 L19.4960938,35.1842105 Z M19.2740543,33.8131168 L18.0472862,33.8131168 L18.0472862,28.4231086 L18.7855674,28.4231086 C19.4553865,28.4231086 19.9050164,28.4490132 20.1344572,28.5008224 C20.4416118,28.5674342 20.6951069,28.6951069 20.8949424,28.8838405 C21.094778,29.072574 21.2502056,29.3353207 21.3612253,29.6720806 C21.4722451,30.0088405 21.5277549,30.4917763 21.5277549,31.1208882 C21.5277549,31.75 21.4722451,32.2468133 21.3612253,32.6113281 C21.2502056,32.9758429 21.1068051,33.2376645 20.9310238,33.3967928 C20.7552426,33.5559211 20.5341283,33.6687911 20.2676809,33.735403 C20.0641447,33.7872122 19.7329359,33.8131168 19.2740543,33.8131168 L19.2740543,33.8131168 Z M26.2738487,35.1842105 L26.2738487,31.7259457 L29.6710526,31.7259457 L29.6710526,30.349301 L26.2738487,30.349301 L26.2738487,28.4231086 L30.2094984,28.4231086 L30.2094984,27.0464638 L24.6307566,27.0464638 L24.6307566,35.1842105 L26.2738487,35.1842105 Z" id="PDF" fill="#F9E2E2"></path>
            </g>
        </g>
    </g>
</svg>