<?xml version="1.0" encoding="UTF-8"?>
<svg width="38px" height="48px" viewBox="0 0 38 48" version="1.1" xmlns="http://www.w3.org/2000/svg" xmlns:xlink="http://www.w3.org/1999/xlink">
    <title>vi</title>
    <g id="知识库" stroke="none" stroke-width="1" fill="none" fill-rule="evenodd">
        <g id="画板" transform="translate(-299.000000, -19.000000)" fill-rule="nonzero">
            <g id="vi" transform="translate(299.000000, 19.000000)">
                <path d="M0,3.82560002 L0,44.1744 C0,46.2744 1.65411763,48 3.66588233,48 L34.3341176,48 C36.3458823,48 38,46.2744 38,44.1744 L38,15.2256 L24.0632353,0 L3.66364707,0 C1.65411763,0 0,1.72560004 0,3.82560002 Z" id="路径备份" fill="#6395EE"></path>
                <path d="M24.0632353,0 L24.0632353,11.0955694 C24.0632353,12.2235694 24.4899786,15.2256 28.2795786,15.2256 L38,15.2256 L24.0632353,0 Z" id="路径备份-2" fill="#D0DFF9"></path>
                <g id="编组-6" transform="translate(7.286000, 21.572000)" fill="#EFF4FD">
                    <path d="M16.484,-1.19015908e-13 C17.494,-1.19015908e-13 18,0.561999984 18,1.68799997 L18,4.478 L21.568,2.23599998 C22.0194845,1.95251109 22.5824324,1.92738212 23.0536048,2.16036277 L23.192,2.238 C23.4435094,2.3980415 23.6483916,2.62154928 23.786,2.886 C23.9280528,3.15748375 24.0015223,3.45960138 24.0000232,3.76599998 L24.0000232,3.76599998 L24.0000232,12.25 C23.9991019,12.5555592 23.9235799,12.8562741 23.78,13.126 C23.6412515,13.3875201 23.4364644,13.6081662 23.186,13.766 C22.6909488,14.0758062 22.0622838,14.0750291 21.568,13.764 L21.568,13.764 L18,11.53 L18,14.312 C18,15.438 17.494,16 16.484,16 L1.51599998,16 C0.506000016,16 0,15.438 0,14.312 L0,1.68799997 C0,0.561999984 0.506000016,-1.19015908e-13 1.51599998,-1.19015908e-13 L16.484,-1.19015908e-13 Z" id="形状结合"></path>
                </g>
            </g>
        </g>
    </g>
</svg>