<?xml version="1.0" encoding="UTF-8"?>
<svg width="39px" height="48px" viewBox="0 0 39 48" version="1.1" xmlns="http://www.w3.org/2000/svg" xmlns:xlink="http://www.w3.org/1999/xlink">
    <title>音频</title>
    <g id="知识库" stroke="none" stroke-width="1" fill="none" fill-rule="evenodd">
        <g id="画板" transform="translate(-349.000000, -19.000000)">
            <g id="音频" transform="translate(349.000000, 19.000000)">
                <path d="M0,3.82560002 L0,44.1744 C0,46.2744 1.69764704,48 3.76235292,48 L35.237647,48 C37.3023529,48 39,46.2744 39,44.1744 L39,15.2256 L25.0632353,0 L3.76005884,0 C1.69764704,0 0,1.72560004 0,3.82560002 Z" id="路径备份" fill="#E36F66" fill-rule="nonzero"></path>
                <g id="编组-9" transform="translate(7.000000, 22.000000)" fill="#F9E2E2">
                    <rect id="矩形" x="11.5125" y="0" width="2.22880215" height="17" rx="1.11440108"></rect>
                    <rect id="矩形备份-6" x="17.5125" y="3.09090909" width="1.95020188" height="10.8181818" rx="0.975100942"></rect>
                    <rect id="矩形备份-8" x="23.5125" y="6.18181818" width="1.95020188" height="4.63636364" rx="0.975100942"></rect>
                    <rect id="矩形备份-9" x="6.10622664e-14" y="6.18181818" width="1.95020188" height="4.63636364" rx="0.975100942"></rect>
                    <rect id="矩形备份-7" x="5.5125" y="3.09090909" width="1.95020188" height="10.8181818" rx="0.975100942"></rect>
                </g>
                <path d="M25.0632353,0 L25.0632353,11.0955694 C25.0632353,12.2235694 25.4899786,15.2256 29.2795786,15.2256 L39,15.2256 L25.0632353,0 Z" id="路径备份-2" fill="#F6D4D1" fill-rule="nonzero"></path>
            </g>
        </g>
    </g>
</svg>