<?xml version="1.0" encoding="UTF-8"?>
<svg width="16px" height="16px" viewBox="0 0 16 16" version="1.1" xmlns="http://www.w3.org/2000/svg" xmlns:xlink="http://www.w3.org/1999/xlink">
    <title>icon/16px/通用/image_icon_Preview</title>
    <g id="icon/16px/通用/image_icon_Preview" stroke="none" stroke-width="1" fill="none" fill-rule="evenodd">
        <path d="M10.5,4.75 C10.8796958,4.75 11.193491,5.03215388 11.2431534,5.39822944 L11.25,5.5 L11.25,9.5 C11.25,10.4181734 10.5428897,11.1711923 9.64352721,11.2441988 L9.5,11.25 L-1,11.25 C-1.9181734,11.25 -2.67119234,10.5428897 -2.7441988,9.64352721 L-2.75,9.5 L-2.75,5.5 C-2.75,5.08578644 -2.41421356,4.75 -2,4.75 C-1.62030423,4.75 -1.30650904,5.03215388 -1.25684662,5.39822944 L-1.25,5.5 L-1.25,9.5 C-1.25,9.61834673 -1.16776659,9.71748682 -1.05732271,9.74339732 L-1,9.75 L9.5,9.75 C9.61834673,9.75 9.71748682,9.66776659 9.74339732,9.55732271 L9.75,9.5 L9.75,5.5 C9.75,5.08578644 10.0857864,4.75 10.5,4.75 Z" id="路径" fill="#8C9195" fill-rule="nonzero" transform="translate(4.250000, 8.000000) rotate(-270.000000) translate(-4.250000, -8.000000) "></path>
        <path d="M10.7762117,3.39705176 L10.8603301,3.46966991 L14.7189087,7.32824856 C15.0613685,7.67070832 15.0877116,8.20957782 14.7979379,8.58225447 L14.7189087,8.67175144 L10.8603301,12.5303301 C10.5674369,12.8232233 10.0925631,12.8232233 9.79966991,12.5303301 C9.53340335,12.2640635 9.5091973,11.8473998 9.72705176,11.5537883 L9.79966991,11.4696699 L12.477,8.791 L4.75,8.79142136 C4.33578644,8.79142136 4,8.45563492 4,8.04142136 C4,7.66172559 4.28215388,7.3479304 4.64822944,7.29826797 L4.75,7.29142136 L12.561,7.291 L9.79966991,4.53033009 C9.53340335,4.26406352 9.5091973,3.84739984 9.72705176,3.55378835 L9.79966991,3.46966991 C10.0659365,3.20340335 10.4826002,3.1791973 10.7762117,3.39705176 Z" id="形状结合" fill="#8C9195" fill-rule="nonzero"></path>
    </g>
</svg>