<?xml version="1.0" encoding="UTF-8"?>
<svg width="150px" height="32px" viewBox="0 0 150 32" version="1.1" xmlns="http://www.w3.org/2000/svg" xmlns:xlink="http://www.w3.org/1999/xlink">
    <title>手风琴/顶部</title>
    <defs>
        <path d="M16,0 L34,0 L34,0 C34,10.4934102 25.4934102,19 15,19 L0,19 L0,19 L0,16 C-1.082166e-15,7.163444 7.163444,1.623249e-15 16,0 Z" id="path-1"></path>
    </defs>
    <g id="页面-1" stroke="none" stroke-width="1" fill="none" fill-rule="evenodd">
        <g id="手工评卷" transform="translate(-24.000000, -100.000000)">
            <g id="2-导航/1-导航菜单/2-手风琴" transform="translate(0.000000, 76.000000)">
                <g id="logo" transform="translate(24.000000, 24.000000)">
                    <path d="M12,15 L22,15 L22,15 L22,16 C22,22.627417 16.627417,28 10,28 L0,28 L0,28 L0,27 C-8.11624501e-16,20.372583 5.372583,15 12,15 Z" id="矩形备份-51" fill="#FFFFFF"></path>
                    <g id="矩形备份-51" transform="translate(0.000000, 4.000000)">
                        <mask id="mask-2" fill="white">
                            <use xlink:href="#path-1"></use>
                        </mask>
                        <use id="蒙版" fill="#FFFFFF" xlink:href="#path-1"></use>
                        <path d="M12,11.2592593 L21.9583333,11.2592593 L21.9583333,11.2592593 L21.9583333,11.9259259 C21.9583333,18.5533429 16.5857503,23.9259259 9.95833333,23.9259259 L0,23.9259259 L0,23.9259259 L0,23.2592593 C-8.11624501e-16,16.6318423 5.372583,11.2592593 12,11.2592593 Z" fill="#B1ECFF" style="mix-blend-mode: multiply;" mask="url(#mask-2)"></path>
                    </g>
                    <text id="易宝内训" font-family="PingFangSC-Semibold, PingFang SC" font-size="14" font-weight="500" line-spacing="24" fill="#FFFFFF">
                        <tspan x="42" y="15">易宝内训</tspan>
                    </text>
                    <text id="Epro-learning" font-family="PingFangSC-Regular, PingFang SC" font-size="10" font-weight="normal" fill="#FFFFFF">
                        <tspan x="44" y="29">Epro learning</tspan>
                    </text>
                </g>
            </g>
        </g>
    </g>
</svg>