<?xml version="1.0" encoding="UTF-8"?>
<svg width="104px" height="30px" viewBox="0 0 104 30" version="1.1" xmlns="http://www.w3.org/2000/svg" xmlns:xlink="http://www.w3.org/1999/xlink">
    <title>编组 6</title>
    <defs>
        <linearGradient x1="0%" y1="69.9189436%" x2="100%" y2="69.9189436%" id="linearGradient-1">
            <stop stop-color="#307CFF" offset="0%"></stop>
            <stop stop-color="#51EAFF" offset="100%"></stop>
        </linearGradient>
        <linearGradient x1="0%" y1="56.1695622%" x2="62.0925367%" y2="68%" id="linearGradient-2">
            <stop stop-color="#58C5FF" offset="0%"></stop>
            <stop stop-color="#1AE8F5" offset="100%"></stop>
        </linearGradient>
    </defs>
    <g id="系统管理" stroke="none" stroke-width="1" fill="none" fill-rule="evenodd">
        <g id="登录" transform="translate(-359.000000, -32.000000)">
            <g id="编组-6" transform="translate(359.000000, 32.000000)">
                <path d="M16,1 L38,1 L38,1 L38,2 C38,13.5979797 28.5979797,23 17,23 L0,23 L0,23 L0,17 C-1.082166e-15,8.163444 7.163444,1 16,1 Z" id="矩形" fill="url(#linearGradient-1)"></path>
                <text id="易宝内训" font-family="PingFangSC-Semibold, PingFang SC" font-size="10" font-weight="500" line-spacing="24" fill="#000B15">
                    <tspan x="46" y="11">易宝内训</tspan>
                </text>
                <text id="epro-learning" font-family="PingFangSC-Regular, PingFang SC" font-size="7" font-weight="normal" fill="#000B15">
                    <tspan x="48" y="28">epro learning</tspan>
                </text>
                <path d="M12,14 L25,14 L25,14 L25,17 C25,23.627417 19.627417,29 13,29 L0,29 L0,29 L0,26 C-8.11624501e-16,19.372583 5.372583,14 12,14 Z" id="矩形备份-51" fill="url(#linearGradient-2)" style="mix-blend-mode: multiply;"></path>
            </g>
        </g>
    </g>
</svg>