<?xml version="1.0" encoding="UTF-8"?>
<svg width="52px" height="52px" viewBox="0 0 52 52" version="1.1" xmlns="http://www.w3.org/2000/svg" xmlns:xlink="http://www.w3.org/1999/xlink">
    <title>编组 32</title>
    <g id="业务申请" stroke="none" stroke-width="1" fill="none" fill-rule="evenodd">
        <g id="编组-32" transform="translate(2.000000, 2.000000)">
            <circle id="椭圆形备份-5" fill="#2875D4" cx="24" cy="24" r="24"></circle>
            <path d="M16.482,30.358 C17.266,30.358 17.672,29.952 17.672,29.168 L17.672,25.416 C18.876,25.318 19.954,25.22 20.92,25.108 C21.256,25.598 21.564,26.074 21.83,26.55 L22.642,25.976 C22.026,24.982 21.144,23.82 19.996,22.476 L19.24,22.938 C19.618,23.386 19.982,23.848 20.332,24.296 C18.708,24.492 16.748,24.646 14.466,24.772 C16.23,23.848 18.288,22.35 20.654,20.264 L19.73,19.802 C19.058,20.404 18.414,20.964 17.784,21.468 C16.636,21.566 15.502,21.65 14.382,21.706 C15.278,21.118 16.16,20.334 17.028,19.326 C19.016,19.172 20.724,18.92 22.18,18.584 L21.69,17.73 C19.03,18.318 15.684,18.612 11.666,18.612 L11.96,19.494 C13.304,19.494 14.564,19.466 15.754,19.41 C14.802,20.446 13.976,21.132 13.276,21.482 C13.066,21.566 12.842,21.636 12.59,21.664 L12.8,22.56 C14.2,22.476 15.516,22.392 16.734,22.294 C15.306,23.358 14.018,24.142 12.87,24.646 C12.604,24.73 12.31,24.8 11.988,24.828 L12.268,25.724 C13.85,25.654 15.306,25.57 16.65,25.486 L16.65,28.916 C16.65,29.252 16.468,29.434 16.132,29.434 C15.67,29.434 15.194,29.406 14.69,29.364 L14.914,30.358 L16.482,30.358 Z M22.418,30.064 L23.132,29.35 C22.18,28.314 21.004,27.292 19.59,26.27 L18.918,26.914 C20.402,28.034 21.564,29.084 22.418,30.064 Z M11.442,29.994 C12.842,29.14 14.018,28.146 14.97,26.998 L14.256,26.368 C13.332,27.432 12.184,28.37 10.812,29.182 L11.442,29.994 Z M36.138,24.114 L36.922,23.568 C36.404,22.644 35.662,21.58 34.71,20.362 L33.94,20.838 C34.29,21.286 34.626,21.748 34.934,22.196 C33.646,22.406 32.344,22.56 31.042,22.672 C31.518,22.112 32.064,21.23 32.68,20.012 L36.964,20.012 L36.964,19.046 L33.814,19.046 C33.618,18.458 33.408,17.912 33.198,17.436 L32.176,17.604 C32.4,18.038 32.61,18.514 32.806,19.046 L29.236,19.046 L29.236,20.012 L31.63,20.012 C30.874,21.468 30.272,22.364 29.796,22.714 C29.74,22.728 29.684,22.756 29.6,22.784 L29.824,23.68 C31.868,23.526 33.758,23.316 35.494,23.036 C35.732,23.4 35.942,23.75 36.138,24.114 Z M25.12,26.914 C26.464,26.69 27.878,26.284 29.348,25.668 L29.348,24.73 C28.354,25.164 27.374,25.5 26.394,25.752 C27.206,24.744 28.228,23.078 29.46,20.754 L28.55,20.404 C28.284,20.936 28.032,21.426 27.78,21.902 C27.164,22.014 26.548,22.126 25.932,22.21 C26.66,21.146 27.374,19.718 28.074,17.926 L27.108,17.534 C26.548,19.186 25.904,20.642 25.148,21.916 C25.008,22.112 24.868,22.238 24.7,22.308 L24.966,23.232 C25.736,23.12 26.506,22.98 27.262,22.84 C26.492,24.184 25.834,25.122 25.302,25.682 C25.176,25.794 25.022,25.906 24.84,25.99 L25.12,26.914 Z M35.942,30.148 C36.558,30.12 36.95,29.952 37.132,29.672 C37.314,29.364 37.412,28.538 37.412,27.222 L36.544,26.914 C36.544,27.74 36.502,28.342 36.446,28.734 C36.39,29.042 36.208,29.21 35.9,29.238 L34.99,29.238 C34.766,29.21 34.668,29.056 34.668,28.762 L34.668,24.128 L33.702,24.128 L33.702,28.93 C33.702,29.742 34.122,30.148 34.962,30.148 L35.942,30.148 Z M29.25,30.372 C30.202,29.756 30.874,29.014 31.28,28.146 C31.644,27.32 31.868,26.018 31.938,24.254 L30.958,24.254 C30.902,25.836 30.706,26.984 30.37,27.712 C30.02,28.426 29.432,29.042 28.606,29.574 L29.25,30.372 Z M24.98,29.742 C26.604,29.35 28.06,28.818 29.348,28.174 L29.348,27.208 C28.06,27.852 26.562,28.356 24.854,28.734 L24.98,29.742 Z" id="系统" fill="#FFFFFF" fill-rule="nonzero"></path>
        </g>
    </g>
</svg>